<mxfile host="app.diagrams.net" modified="2021-11-29T17:20:45.166Z" agent="5.0 (Windows NT 10.0; Win64; x64) AppleWebKit/537.36 (KHTML, like Gecko) Chrome/95.0.4638.69 Safari/537.36" etag="w4Ik3ZFwTrC2LzHjbLBS" version="15.8.7" type="github">
  <diagram id="92E1bIUMvndrDam6GN1R" name="Page-1">
    <mxGraphModel dx="1185" dy="1831" grid="0" gridSize="10" guides="1" tooltips="1" connect="1" arrows="1" fold="1" page="1" pageScale="1" pageWidth="827" pageHeight="1169" math="0" shadow="0">
      <root>
        <mxCell id="0" />
        <mxCell id="1" parent="0" />
        <mxCell id="3M2WJjGJP81ppkCAJXcm-3" value="Máquina" style="shape=ext;double=1;rounded=1;whiteSpace=wrap;html=1;" parent="1" vertex="1">
          <mxGeometry x="340" y="-280" width="120" height="50" as="geometry" />
        </mxCell>
        <mxCell id="3M2WJjGJP81ppkCAJXcm-5" value="" style="endArrow=classic;html=1;exitX=1;exitY=0.5;exitDx=0;exitDy=0;entryX=0;entryY=0.5;entryDx=0;entryDy=0;" parent="1" source="3M2WJjGJP81ppkCAJXcm-95" target="3M2WJjGJP81ppkCAJXcm-3" edge="1">
          <mxGeometry width="50" height="50" relative="1" as="geometry">
            <mxPoint x="240" y="-255" as="sourcePoint" />
            <mxPoint x="350" y="-245" as="targetPoint" />
          </mxGeometry>
        </mxCell>
        <mxCell id="3M2WJjGJP81ppkCAJXcm-6" value="" style="endArrow=classic;html=1;exitX=1;exitY=0.5;exitDx=0;exitDy=0;entryX=0;entryY=0.5;entryDx=0;entryDy=0;entryPerimeter=0;strokeColor=#10739E;" parent="1" source="3M2WJjGJP81ppkCAJXcm-3" edge="1">
          <mxGeometry width="50" height="50" relative="1" as="geometry">
            <mxPoint x="510" y="-160" as="sourcePoint" />
            <mxPoint x="590" y="-350" as="targetPoint" />
          </mxGeometry>
        </mxCell>
        <mxCell id="3M2WJjGJP81ppkCAJXcm-7" value="" style="endArrow=classic;html=1;entryX=0;entryY=0.5;entryDx=0;entryDy=0;entryPerimeter=0;strokeColor=#AE4132;" parent="1" edge="1">
          <mxGeometry width="50" height="50" relative="1" as="geometry">
            <mxPoint x="520" y="-240" as="sourcePoint" />
            <mxPoint x="590" y="-219.99999999999977" as="targetPoint" />
          </mxGeometry>
        </mxCell>
        <mxCell id="3M2WJjGJP81ppkCAJXcm-8" value="" style="endArrow=classic;html=1;exitX=1;exitY=0.5;exitDx=0;exitDy=0;entryX=0;entryY=0.5;entryDx=0;entryDy=0;entryPerimeter=0;strokeColor=#BD7000;" parent="1" source="3M2WJjGJP81ppkCAJXcm-3" edge="1">
          <mxGeometry width="50" height="50" relative="1" as="geometry">
            <mxPoint x="480" y="-235" as="sourcePoint" />
            <mxPoint x="590" y="-279.9999999999998" as="targetPoint" />
          </mxGeometry>
        </mxCell>
        <mxCell id="3M2WJjGJP81ppkCAJXcm-9" value="" style="endArrow=classic;html=1;exitX=1;exitY=0.5;exitDx=0;exitDy=0;entryX=0;entryY=0.5;entryDx=0;entryDy=0;entryPerimeter=0;strokeColor=#AE4132;" parent="1" source="3M2WJjGJP81ppkCAJXcm-3" edge="1">
          <mxGeometry width="50" height="50" relative="1" as="geometry">
            <mxPoint x="490" y="-225" as="sourcePoint" />
            <mxPoint x="590" y="-159.99999999999977" as="targetPoint" />
          </mxGeometry>
        </mxCell>
        <mxCell id="3M2WJjGJP81ppkCAJXcm-12" value="" style="endArrow=none;html=1;" parent="1" edge="1">
          <mxGeometry width="50" height="50" relative="1" as="geometry">
            <mxPoint x="140" y="-89.99999999999977" as="sourcePoint" />
            <mxPoint x="140" y="-89.99999999999977" as="targetPoint" />
            <Array as="points">
              <mxPoint x="140" y="-490" />
              <mxPoint x="280" y="-490" />
              <mxPoint x="280" y="-90" />
            </Array>
          </mxGeometry>
        </mxCell>
        <mxCell id="3M2WJjGJP81ppkCAJXcm-13" value="" style="endArrow=none;html=1;" parent="1" edge="1">
          <mxGeometry width="50" height="50" relative="1" as="geometry">
            <mxPoint x="280" y="-89.99999999999977" as="sourcePoint" />
            <mxPoint x="280" y="-89.99999999999977" as="targetPoint" />
            <Array as="points">
              <mxPoint x="280" y="-490" />
              <mxPoint x="490" y="-490" />
              <mxPoint x="490" y="-90" />
            </Array>
          </mxGeometry>
        </mxCell>
        <mxCell id="3M2WJjGJP81ppkCAJXcm-14" value="" style="endArrow=none;html=1;" parent="1" edge="1">
          <mxGeometry width="50" height="50" relative="1" as="geometry">
            <mxPoint x="490" y="-89.99999999999977" as="sourcePoint" />
            <mxPoint x="490" y="-89.99999999999977" as="targetPoint" />
            <Array as="points">
              <mxPoint x="490" y="-490" />
              <mxPoint x="660" y="-490" />
              <mxPoint x="660" y="-90" />
            </Array>
          </mxGeometry>
        </mxCell>
        <mxCell id="3M2WJjGJP81ppkCAJXcm-15" value="" style="endArrow=none;html=1;" parent="1" edge="1">
          <mxGeometry width="50" height="50" relative="1" as="geometry">
            <mxPoint x="140" y="-410" as="sourcePoint" />
            <mxPoint x="660" y="-410" as="targetPoint" />
          </mxGeometry>
        </mxCell>
        <mxCell id="3M2WJjGJP81ppkCAJXcm-16" value="ENTRADA DE BOBINA" style="text;html=1;strokeColor=none;fillColor=none;align=center;verticalAlign=middle;whiteSpace=wrap;rounded=0;" parent="1" vertex="1">
          <mxGeometry x="163" y="-460" width="72" height="20" as="geometry" />
        </mxCell>
        <mxCell id="3M2WJjGJP81ppkCAJXcm-17" value="APLICAÇÃO DE FITA" style="text;html=1;strokeColor=none;fillColor=none;align=center;verticalAlign=middle;whiteSpace=wrap;rounded=0;" parent="1" vertex="1">
          <mxGeometry x="350" y="-460" width="70" height="20" as="geometry" />
        </mxCell>
        <mxCell id="3M2WJjGJP81ppkCAJXcm-18" value="SAÍDA DE BOBINA" style="text;html=1;strokeColor=none;fillColor=none;align=center;verticalAlign=middle;whiteSpace=wrap;rounded=0;" parent="1" vertex="1">
          <mxGeometry x="540" y="-460" width="70" height="20" as="geometry" />
        </mxCell>
        <mxCell id="3M2WJjGJP81ppkCAJXcm-19" value="B1" style="ellipse;shape=doubleEllipse;whiteSpace=wrap;html=1;aspect=fixed;fillColor=#b1ddf0;strokeColor=#10739e;" parent="1" vertex="1">
          <mxGeometry x="590" y="-370" width="40" height="40" as="geometry" />
        </mxCell>
        <mxCell id="3M2WJjGJP81ppkCAJXcm-20" value="B2" style="ellipse;shape=doubleEllipse;whiteSpace=wrap;html=1;aspect=fixed;fillColor=#F0A30A;strokeColor=#BD7000;" parent="1" vertex="1">
          <mxGeometry x="590" y="-305.5" width="40" height="40" as="geometry" />
        </mxCell>
        <mxCell id="3M2WJjGJP81ppkCAJXcm-21" value="B3" style="ellipse;shape=doubleEllipse;whiteSpace=wrap;html=1;aspect=fixed;fillColor=#F0A30A;strokeColor=#AE4132;gradientDirection=south;strokeWidth=1;gradientColor=#FAD9DC;perimeterSpacing=0;" parent="1" vertex="1">
          <mxGeometry x="590" y="-240" width="40" height="40" as="geometry" />
        </mxCell>
        <mxCell id="3M2WJjGJP81ppkCAJXcm-22" value="B4" style="ellipse;shape=doubleEllipse;whiteSpace=wrap;html=1;aspect=fixed;fillColor=#FAD9DC;strokeColor=#AE4132;" parent="1" vertex="1">
          <mxGeometry x="590" y="-180" width="40" height="40" as="geometry" />
        </mxCell>
        <mxCell id="3M2WJjGJP81ppkCAJXcm-23" value="" style="shape=curlyBracket;whiteSpace=wrap;html=1;rounded=1;direction=south;" parent="1" vertex="1">
          <mxGeometry x="140" y="-20" width="130" height="20" as="geometry" />
        </mxCell>
        <mxCell id="3M2WJjGJP81ppkCAJXcm-24" value="" style="shape=curlyBracket;whiteSpace=wrap;html=1;rounded=1;direction=south;" parent="1" vertex="1">
          <mxGeometry x="270" y="-20" width="130" height="20" as="geometry" />
        </mxCell>
        <mxCell id="3M2WJjGJP81ppkCAJXcm-25" value="" style="shape=curlyBracket;whiteSpace=wrap;html=1;rounded=1;direction=south;" parent="1" vertex="1">
          <mxGeometry x="400" y="-20" width="130" height="20" as="geometry" />
        </mxCell>
        <mxCell id="3M2WJjGJP81ppkCAJXcm-26" value="" style="shape=curlyBracket;whiteSpace=wrap;html=1;rounded=1;direction=south;" parent="1" vertex="1">
          <mxGeometry x="530" y="-20" width="130" height="20" as="geometry" />
        </mxCell>
        <mxCell id="3M2WJjGJP81ppkCAJXcm-27" value="B1" style="ellipse;shape=doubleEllipse;whiteSpace=wrap;html=1;aspect=fixed;" parent="1" vertex="1">
          <mxGeometry x="190" y="-50" width="30" height="30" as="geometry" />
        </mxCell>
        <mxCell id="3M2WJjGJP81ppkCAJXcm-28" value="B2" style="ellipse;shape=doubleEllipse;whiteSpace=wrap;html=1;aspect=fixed;" parent="1" vertex="1">
          <mxGeometry x="320" y="-50" width="30" height="30" as="geometry" />
        </mxCell>
        <mxCell id="3M2WJjGJP81ppkCAJXcm-29" value="B3" style="ellipse;shape=doubleEllipse;whiteSpace=wrap;html=1;aspect=fixed;" parent="1" vertex="1">
          <mxGeometry x="450" y="-50" width="30" height="30" as="geometry" />
        </mxCell>
        <mxCell id="3M2WJjGJP81ppkCAJXcm-30" value="B4" style="ellipse;shape=doubleEllipse;whiteSpace=wrap;html=1;aspect=fixed;" parent="1" vertex="1">
          <mxGeometry x="580" y="-50" width="30" height="30" as="geometry" />
        </mxCell>
        <mxCell id="3M2WJjGJP81ppkCAJXcm-31" value="" style="rounded=1;whiteSpace=wrap;html=1;strokeWidth=2;fillWeight=4;hachureGap=8;hachureAngle=45;fillColor=#B1DDF0;sketch=1;strokeColor=#10739E;" parent="1" vertex="1">
          <mxGeometry x="140" y="10" width="130" height="10" as="geometry" />
        </mxCell>
        <mxCell id="3M2WJjGJP81ppkCAJXcm-32" value="" style="rounded=1;whiteSpace=wrap;html=1;strokeWidth=2;fillWeight=4;hachureGap=8;hachureAngle=45;fillColor=#F0A30A;sketch=1;strokeColor=#BD7000;" parent="1" vertex="1">
          <mxGeometry x="270" y="10" width="210" height="10" as="geometry" />
        </mxCell>
        <mxCell id="3M2WJjGJP81ppkCAJXcm-33" value="" style="endArrow=none;html=1;" parent="1" edge="1">
          <mxGeometry width="50" height="50" relative="1" as="geometry">
            <mxPoint x="140" y="-490" as="sourcePoint" />
            <mxPoint x="140" y="-490" as="targetPoint" />
            <Array as="points">
              <mxPoint x="140" y="-520" />
              <mxPoint x="660" y="-520" />
              <mxPoint x="660" y="-490" />
            </Array>
          </mxGeometry>
        </mxCell>
        <mxCell id="3M2WJjGJP81ppkCAJXcm-34" value="Ordem xxxx sendo executada na máquina" style="text;html=1;strokeColor=none;fillColor=none;align=center;verticalAlign=middle;whiteSpace=wrap;rounded=0;" parent="1" vertex="1">
          <mxGeometry x="275" y="-520" width="250" height="20" as="geometry" />
        </mxCell>
        <mxCell id="3M2WJjGJP81ppkCAJXcm-35" value="" style="shape=curlyBracket;whiteSpace=wrap;html=1;rounded=1;flipH=1;strokeColor=#000000;strokeWidth=1;gradientDirection=south;direction=north;fillColor=#000000;" parent="1" vertex="1">
          <mxGeometry x="140" y="30" width="520" height="20" as="geometry" />
        </mxCell>
        <mxCell id="3M2WJjGJP81ppkCAJXcm-36" value="Operador aponta os lotes de fita que foram usados na ordem de produção" style="rounded=0;whiteSpace=wrap;html=1;strokeColor=#000000;strokeWidth=1;fillColor=#FFFFFF;gradientColor=none;gradientDirection=south;" parent="1" vertex="1">
          <mxGeometry x="218.75" y="50" width="362.5" height="40" as="geometry" />
        </mxCell>
        <mxCell id="3M2WJjGJP81ppkCAJXcm-45" value="" style="endArrow=none;html=1;" parent="1" edge="1">
          <mxGeometry width="50" height="50" relative="1" as="geometry">
            <mxPoint x="141" y="550" as="sourcePoint" />
            <mxPoint x="141" y="550" as="targetPoint" />
            <Array as="points">
              <mxPoint x="141" y="190" />
              <mxPoint x="281" y="190" />
              <mxPoint x="281" y="550" />
            </Array>
          </mxGeometry>
        </mxCell>
        <mxCell id="3M2WJjGJP81ppkCAJXcm-46" value="" style="endArrow=none;html=1;" parent="1" edge="1">
          <mxGeometry width="50" height="50" relative="1" as="geometry">
            <mxPoint x="281" y="550" as="sourcePoint" />
            <mxPoint x="281" y="550" as="targetPoint" />
            <Array as="points">
              <mxPoint x="281" y="190" />
              <mxPoint x="491" y="190" />
              <mxPoint x="491" y="550" />
            </Array>
          </mxGeometry>
        </mxCell>
        <mxCell id="3M2WJjGJP81ppkCAJXcm-47" value="" style="endArrow=none;html=1;" parent="1" edge="1">
          <mxGeometry width="50" height="50" relative="1" as="geometry">
            <mxPoint x="491" y="550" as="sourcePoint" />
            <mxPoint x="491" y="550" as="targetPoint" />
            <Array as="points">
              <mxPoint x="491" y="190" />
              <mxPoint x="661" y="190" />
              <mxPoint x="661" y="550" />
            </Array>
          </mxGeometry>
        </mxCell>
        <mxCell id="3M2WJjGJP81ppkCAJXcm-48" value="" style="endArrow=none;html=1;" parent="1" edge="1">
          <mxGeometry width="50" height="50" relative="1" as="geometry">
            <mxPoint x="141" y="270" as="sourcePoint" />
            <mxPoint x="661" y="270" as="targetPoint" />
          </mxGeometry>
        </mxCell>
        <mxCell id="3M2WJjGJP81ppkCAJXcm-61" value="" style="rounded=1;whiteSpace=wrap;html=1;strokeWidth=2;fillWeight=4;hachureGap=8;hachureAngle=45;fillColor=#B1DDF0;sketch=1;strokeColor=#10739E;" parent="1" vertex="1">
          <mxGeometry x="141" y="650" width="520" height="10" as="geometry" />
        </mxCell>
        <mxCell id="3M2WJjGJP81ppkCAJXcm-62" value="" style="endArrow=none;html=1;" parent="1" edge="1">
          <mxGeometry width="50" height="50" relative="1" as="geometry">
            <mxPoint x="141" y="190" as="sourcePoint" />
            <mxPoint x="141" y="190" as="targetPoint" />
            <Array as="points">
              <mxPoint x="141" y="160" />
              <mxPoint x="661" y="160" />
              <mxPoint x="661" y="190" />
            </Array>
          </mxGeometry>
        </mxCell>
        <mxCell id="3M2WJjGJP81ppkCAJXcm-63" value="Ordem xxxx sendo executada na máquina" style="text;html=1;strokeColor=none;fillColor=none;align=center;verticalAlign=middle;whiteSpace=wrap;rounded=0;" parent="1" vertex="1">
          <mxGeometry x="276" y="160" width="250" height="20" as="geometry" />
        </mxCell>
        <mxCell id="3M2WJjGJP81ppkCAJXcm-64" value="" style="shape=curlyBracket;whiteSpace=wrap;html=1;rounded=1;flipH=1;strokeColor=#000000;strokeWidth=1;gradientDirection=south;direction=north;fillColor=#000000;" parent="1" vertex="1">
          <mxGeometry x="141" y="670" width="520" height="20" as="geometry" />
        </mxCell>
        <mxCell id="3M2WJjGJP81ppkCAJXcm-65" value="Operador aponta lote de fita que foi usado na ordem de produção" style="rounded=0;whiteSpace=wrap;html=1;strokeColor=#000000;strokeWidth=1;fillColor=#FFFFFF;gradientColor=none;gradientDirection=south;" parent="1" vertex="1">
          <mxGeometry x="223.5" y="690" width="362.5" height="40" as="geometry" />
        </mxCell>
        <mxCell id="3M2WJjGJP81ppkCAJXcm-66" value="Receber necessidade" style="rounded=1;whiteSpace=wrap;html=1;" parent="1" vertex="1">
          <mxGeometry x="339.5" y="-1165" width="120" height="30" as="geometry" />
        </mxCell>
        <mxCell id="3M2WJjGJP81ppkCAJXcm-67" value="Realizar programação" style="rounded=0;whiteSpace=wrap;html=1;" parent="1" vertex="1">
          <mxGeometry x="339.5" y="-1112" width="120" height="30" as="geometry" />
        </mxCell>
        <mxCell id="3M2WJjGJP81ppkCAJXcm-68" value="Realizar operação descrita na ordem" style="rounded=0;whiteSpace=wrap;html=1;" parent="1" vertex="1">
          <mxGeometry x="340" y="-1057" width="120" height="30" as="geometry" />
        </mxCell>
        <mxCell id="3M2WJjGJP81ppkCAJXcm-69" value="" style="endArrow=classic;html=1;exitX=0.5;exitY=1;exitDx=0;exitDy=0;entryX=0.5;entryY=0;entryDx=0;entryDy=0;entryPerimeter=0;" parent="1" source="3M2WJjGJP81ppkCAJXcm-66" target="3M2WJjGJP81ppkCAJXcm-67" edge="1">
          <mxGeometry width="50" height="50" relative="1" as="geometry">
            <mxPoint x="404.75" y="-660" as="sourcePoint" />
            <mxPoint x="404.75" y="-1060" as="targetPoint" />
          </mxGeometry>
        </mxCell>
        <mxCell id="3M2WJjGJP81ppkCAJXcm-70" value="" style="endArrow=classic;html=1;exitX=0.5;exitY=1;exitDx=0;exitDy=0;entryX=0.5;entryY=0;entryDx=0;entryDy=0;" parent="1" source="3M2WJjGJP81ppkCAJXcm-67" target="3M2WJjGJP81ppkCAJXcm-68" edge="1">
          <mxGeometry width="50" height="50" relative="1" as="geometry">
            <mxPoint x="413.75" y="-1060" as="sourcePoint" />
            <mxPoint x="400" y="-1010" as="targetPoint" />
          </mxGeometry>
        </mxCell>
        <mxCell id="3M2WJjGJP81ppkCAJXcm-72" value="Novo apontamento de material?" style="rhombus;whiteSpace=wrap;html=1;" parent="1" vertex="1">
          <mxGeometry x="322.75" y="-888" width="154.5" height="85" as="geometry" />
        </mxCell>
        <mxCell id="3M2WJjGJP81ppkCAJXcm-73" value="" style="endArrow=classic;html=1;exitX=1;exitY=0.5;exitDx=0;exitDy=0;entryX=0.5;entryY=0;entryDx=0;entryDy=0;" parent="1" source="3M2WJjGJP81ppkCAJXcm-72" target="3M2WJjGJP81ppkCAJXcm-77" edge="1">
          <mxGeometry width="50" height="50" relative="1" as="geometry">
            <mxPoint x="65" y="-866" as="sourcePoint" />
            <mxPoint x="475" y="-766" as="targetPoint" />
            <Array as="points">
              <mxPoint x="495" y="-846" />
            </Array>
          </mxGeometry>
        </mxCell>
        <mxCell id="3M2WJjGJP81ppkCAJXcm-74" value="" style="endArrow=classic;html=1;exitX=0;exitY=0.5;exitDx=0;exitDy=0;entryX=0.5;entryY=0;entryDx=0;entryDy=0;" parent="1" source="3M2WJjGJP81ppkCAJXcm-72" target="3M2WJjGJP81ppkCAJXcm-83" edge="1">
          <mxGeometry width="50" height="50" relative="1" as="geometry">
            <mxPoint x="65" y="-866" as="sourcePoint" />
            <mxPoint x="324" y="-829" as="targetPoint" />
            <Array as="points">
              <mxPoint x="295" y="-846" />
            </Array>
          </mxGeometry>
        </mxCell>
        <mxCell id="3M2WJjGJP81ppkCAJXcm-75" value="Sim" style="text;html=1;strokeColor=none;fillColor=none;align=center;verticalAlign=middle;whiteSpace=wrap;rounded=0;" parent="1" vertex="1">
          <mxGeometry x="468" y="-866" width="40" height="20" as="geometry" />
        </mxCell>
        <mxCell id="3M2WJjGJP81ppkCAJXcm-76" value="Não" style="text;html=1;strokeColor=none;fillColor=none;align=center;verticalAlign=middle;whiteSpace=wrap;rounded=0;" parent="1" vertex="1">
          <mxGeometry x="292" y="-866" width="40" height="20" as="geometry" />
        </mxCell>
        <mxCell id="3M2WJjGJP81ppkCAJXcm-77" value="Adicionar novo lote de MP?" style="rhombus;whiteSpace=wrap;html=1;" parent="1" vertex="1">
          <mxGeometry x="435.5" y="-826" width="120" height="90" as="geometry" />
        </mxCell>
        <mxCell id="3M2WJjGJP81ppkCAJXcm-78" value="" style="endArrow=classic;html=1;exitX=0;exitY=0.5;exitDx=0;exitDy=0;entryX=0.5;entryY=0;entryDx=0;entryDy=0;" parent="1" source="3M2WJjGJP81ppkCAJXcm-77" target="3M2WJjGJP81ppkCAJXcm-84" edge="1">
          <mxGeometry width="50" height="50" relative="1" as="geometry">
            <mxPoint x="135" y="-846" as="sourcePoint" />
            <mxPoint x="395" y="-706" as="targetPoint" />
            <Array as="points">
              <mxPoint x="405" y="-781" />
            </Array>
          </mxGeometry>
        </mxCell>
        <mxCell id="3M2WJjGJP81ppkCAJXcm-79" value="Não" style="text;html=1;strokeColor=none;fillColor=none;align=center;verticalAlign=middle;whiteSpace=wrap;rounded=0;" parent="1" vertex="1">
          <mxGeometry x="404" y="-799" width="40" height="20" as="geometry" />
        </mxCell>
        <mxCell id="3M2WJjGJP81ppkCAJXcm-80" value="" style="endArrow=classic;html=1;exitX=1;exitY=0.5;exitDx=0;exitDy=0;entryX=0.5;entryY=0;entryDx=0;entryDy=0;" parent="1" source="3M2WJjGJP81ppkCAJXcm-77" target="3M2WJjGJP81ppkCAJXcm-82" edge="1">
          <mxGeometry width="50" height="50" relative="1" as="geometry">
            <mxPoint x="135" y="-846" as="sourcePoint" />
            <mxPoint x="555" y="-706" as="targetPoint" />
            <Array as="points">
              <mxPoint x="585" y="-781" />
            </Array>
          </mxGeometry>
        </mxCell>
        <mxCell id="3M2WJjGJP81ppkCAJXcm-81" value="Sim" style="text;html=1;strokeColor=none;fillColor=none;align=center;verticalAlign=middle;whiteSpace=wrap;rounded=0;" parent="1" vertex="1">
          <mxGeometry x="550" y="-799" width="40" height="20" as="geometry" />
        </mxCell>
        <mxCell id="3M2WJjGJP81ppkCAJXcm-82" value="Apontar novo lote de MP no GCF" style="rounded=0;whiteSpace=wrap;html=1;" parent="1" vertex="1">
          <mxGeometry x="525" y="-736" width="120" height="30" as="geometry" />
        </mxCell>
        <mxCell id="3M2WJjGJP81ppkCAJXcm-83" value="Ordem salva com um lote MP" style="rounded=0;whiteSpace=wrap;html=1;" parent="1" vertex="1">
          <mxGeometry x="235" y="-776" width="120" height="40" as="geometry" />
        </mxCell>
        <mxCell id="3M2WJjGJP81ppkCAJXcm-84" value="Ordem salva com um lote de MP" style="rounded=0;whiteSpace=wrap;html=1;" parent="1" vertex="1">
          <mxGeometry x="345" y="-723" width="120" height="40" as="geometry" />
        </mxCell>
        <mxCell id="3M2WJjGJP81ppkCAJXcm-85" value="" style="endArrow=classic;html=1;exitX=0.5;exitY=1;exitDx=0;exitDy=0;entryX=0.5;entryY=0;entryDx=0;entryDy=0;" parent="1" source="3M2WJjGJP81ppkCAJXcm-82" target="3M2WJjGJP81ppkCAJXcm-86" edge="1">
          <mxGeometry width="50" height="50" relative="1" as="geometry">
            <mxPoint x="115" y="-786" as="sourcePoint" />
            <mxPoint x="555" y="-676" as="targetPoint" />
          </mxGeometry>
        </mxCell>
        <mxCell id="3M2WJjGJP81ppkCAJXcm-86" value="Ordem salva com mais de um lote de MP" style="rounded=0;whiteSpace=wrap;html=1;" parent="1" vertex="1">
          <mxGeometry x="525" y="-686" width="120" height="50" as="geometry" />
        </mxCell>
        <mxCell id="3M2WJjGJP81ppkCAJXcm-87" value="" style="endArrow=classic;html=1;exitX=0.5;exitY=1;exitDx=0;exitDy=0;" parent="1" source="dYq_uxf1lzoIXzODzYUG-4" target="3M2WJjGJP81ppkCAJXcm-72" edge="1">
          <mxGeometry width="50" height="50" relative="1" as="geometry">
            <mxPoint x="400" y="-907" as="sourcePoint" />
            <mxPoint x="600" y="-780" as="targetPoint" />
          </mxGeometry>
        </mxCell>
        <mxCell id="3M2WJjGJP81ppkCAJXcm-88" value="" style="endArrow=classic;html=1;exitX=0.5;exitY=1;exitDx=0;exitDy=0;entryX=0;entryY=0.5;entryDx=0;entryDy=0;" parent="1" source="3M2WJjGJP81ppkCAJXcm-83" edge="1" target="3M2WJjGJP81ppkCAJXcm-92">
          <mxGeometry width="50" height="50" relative="1" as="geometry">
            <mxPoint x="555" y="-676" as="sourcePoint" />
            <mxPoint x="344" y="-606" as="targetPoint" />
            <Array as="points">
              <mxPoint x="295" y="-646" />
            </Array>
          </mxGeometry>
        </mxCell>
        <mxCell id="3M2WJjGJP81ppkCAJXcm-89" value="" style="endArrow=classic;html=1;exitX=0.5;exitY=1;exitDx=0;exitDy=0;entryX=0.5;entryY=0;entryDx=0;entryDy=0;" parent="1" source="3M2WJjGJP81ppkCAJXcm-84" target="3M2WJjGJP81ppkCAJXcm-92" edge="1">
          <mxGeometry width="50" height="50" relative="1" as="geometry">
            <mxPoint x="555" y="-691" as="sourcePoint" />
            <mxPoint x="405" y="-531" as="targetPoint" />
            <Array as="points" />
          </mxGeometry>
        </mxCell>
        <mxCell id="3M2WJjGJP81ppkCAJXcm-90" value="" style="endArrow=classic;html=1;exitX=0.5;exitY=1;exitDx=0;exitDy=0;entryX=1;entryY=0.5;entryDx=0;entryDy=0;" parent="1" source="3M2WJjGJP81ppkCAJXcm-86" target="3M2WJjGJP81ppkCAJXcm-92" edge="1">
          <mxGeometry width="50" height="50" relative="1" as="geometry">
            <mxPoint x="555" y="-701" as="sourcePoint" />
            <mxPoint x="415" y="-531" as="targetPoint" />
            <Array as="points">
              <mxPoint x="585" y="-621" />
            </Array>
          </mxGeometry>
        </mxCell>
        <mxCell id="3M2WJjGJP81ppkCAJXcm-92" value="Dar continuidade na ordem" style="rounded=0;whiteSpace=wrap;html=1;" parent="1" vertex="1">
          <mxGeometry x="346" y="-612" width="120" height="40" as="geometry" />
        </mxCell>
        <mxCell id="3M2WJjGJP81ppkCAJXcm-95" value="B" style="ellipse;shape=doubleEllipse;whiteSpace=wrap;html=1;aspect=fixed;" parent="1" vertex="1">
          <mxGeometry x="182.5" y="-275" width="40" height="40" as="geometry" />
        </mxCell>
        <mxCell id="3M2WJjGJP81ppkCAJXcm-97" value="F2" style="strokeWidth=2;html=1;shape=mxgraph.flowchart.sequential_data;whiteSpace=wrap;fillColor=#F0A30A;strokeColor=#BD7000;fontColor=#000000;" parent="1" vertex="1">
          <mxGeometry x="332" y="-354.5" width="29" height="24.5" as="geometry" />
        </mxCell>
        <mxCell id="3M2WJjGJP81ppkCAJXcm-100" value="F3" style="strokeWidth=2;html=1;shape=mxgraph.flowchart.sequential_data;whiteSpace=wrap;fillColor=#fad9d5;strokeColor=#AE4132;" parent="1" vertex="1">
          <mxGeometry x="372" y="-354.5" width="29" height="24.5" as="geometry" />
        </mxCell>
        <mxCell id="3M2WJjGJP81ppkCAJXcm-101" value="F1" style="strokeWidth=2;html=1;shape=mxgraph.flowchart.sequential_data;whiteSpace=wrap;fillColor=#B1DDF0;strokeColor=#10739E;" parent="1" vertex="1">
          <mxGeometry x="291" y="-354.5" width="29" height="24.5" as="geometry" />
        </mxCell>
        <mxCell id="3M2WJjGJP81ppkCAJXcm-104" value="" style="endArrow=classic;html=1;exitX=1;exitY=1;exitDx=0;exitDy=0;exitPerimeter=0;entryX=0.25;entryY=0;entryDx=0;entryDy=0;strokeColor=#10739E;" parent="1" source="3M2WJjGJP81ppkCAJXcm-101" target="3M2WJjGJP81ppkCAJXcm-3" edge="1">
          <mxGeometry width="50" height="50" relative="1" as="geometry">
            <mxPoint x="410" y="-310" as="sourcePoint" />
            <mxPoint x="460" y="-360" as="targetPoint" />
            <Array as="points">
              <mxPoint x="330" y="-330" />
            </Array>
          </mxGeometry>
        </mxCell>
        <mxCell id="3M2WJjGJP81ppkCAJXcm-107" value="" style="endArrow=classic;html=1;exitX=1;exitY=1;exitDx=0;exitDy=0;exitPerimeter=0;entryX=0.5;entryY=0;entryDx=0;entryDy=0;strokeColor=#BD7000;" parent="1" source="3M2WJjGJP81ppkCAJXcm-97" target="3M2WJjGJP81ppkCAJXcm-3" edge="1">
          <mxGeometry width="50" height="50" relative="1" as="geometry">
            <mxPoint x="410" y="-310" as="sourcePoint" />
            <mxPoint x="460" y="-360" as="targetPoint" />
            <Array as="points">
              <mxPoint x="370" y="-330" />
            </Array>
          </mxGeometry>
        </mxCell>
        <mxCell id="3M2WJjGJP81ppkCAJXcm-108" value="" style="endArrow=classic;html=1;entryX=0.75;entryY=0;entryDx=0;entryDy=0;strokeColor=#AE4132;" parent="1" target="3M2WJjGJP81ppkCAJXcm-3" edge="1">
          <mxGeometry width="50" height="50" relative="1" as="geometry">
            <mxPoint x="400" y="-330" as="sourcePoint" />
            <mxPoint x="460" y="-360" as="targetPoint" />
            <Array as="points">
              <mxPoint x="410" y="-330" />
            </Array>
          </mxGeometry>
        </mxCell>
        <mxCell id="3M2WJjGJP81ppkCAJXcm-109" value="" style="endArrow=none;html=1;strokeColor=#F0A30A;exitX=1;exitY=0.5;exitDx=0;exitDy=0;" parent="1" source="3M2WJjGJP81ppkCAJXcm-3" edge="1">
          <mxGeometry width="50" height="50" relative="1" as="geometry">
            <mxPoint x="420" y="-270" as="sourcePoint" />
            <mxPoint x="520" y="-240" as="targetPoint" />
          </mxGeometry>
        </mxCell>
        <mxCell id="3M2WJjGJP81ppkCAJXcm-110" value="" style="rounded=1;whiteSpace=wrap;html=1;strokeWidth=2;fillWeight=4;hachureGap=8;hachureAngle=45;fillColor=#FAD9DC;sketch=1;strokeColor=#AE4132;" parent="1" vertex="1">
          <mxGeometry x="480" y="10" width="180" height="10" as="geometry" />
        </mxCell>
        <mxCell id="3M2WJjGJP81ppkCAJXcm-112" value="Máquina" style="shape=ext;double=1;rounded=1;whiteSpace=wrap;html=1;" parent="1" vertex="1">
          <mxGeometry x="341" y="390" width="120" height="50" as="geometry" />
        </mxCell>
        <mxCell id="3M2WJjGJP81ppkCAJXcm-113" value="" style="endArrow=classic;html=1;exitX=1;exitY=0.5;exitDx=0;exitDy=0;entryX=0;entryY=0.5;entryDx=0;entryDy=0;" parent="1" source="3M2WJjGJP81ppkCAJXcm-122" target="3M2WJjGJP81ppkCAJXcm-112" edge="1">
          <mxGeometry width="50" height="50" relative="1" as="geometry">
            <mxPoint x="241" y="415" as="sourcePoint" />
            <mxPoint x="351" y="425" as="targetPoint" />
          </mxGeometry>
        </mxCell>
        <mxCell id="3M2WJjGJP81ppkCAJXcm-114" value="" style="endArrow=classic;html=1;exitX=1;exitY=0.5;exitDx=0;exitDy=0;strokeColor=#10739E;entryX=0;entryY=0.5;entryDx=0;entryDy=0;" parent="1" source="3M2WJjGJP81ppkCAJXcm-112" target="3M2WJjGJP81ppkCAJXcm-118" edge="1">
          <mxGeometry width="50" height="50" relative="1" as="geometry">
            <mxPoint x="511" y="510" as="sourcePoint" />
            <mxPoint x="581" y="410" as="targetPoint" />
          </mxGeometry>
        </mxCell>
        <mxCell id="3M2WJjGJP81ppkCAJXcm-118" value="B2" style="ellipse;shape=doubleEllipse;whiteSpace=wrap;html=1;aspect=fixed;fillColor=#B1DDF0;strokeColor=#10739E;" parent="1" vertex="1">
          <mxGeometry x="586" y="395" width="40" height="40" as="geometry" />
        </mxCell>
        <mxCell id="3M2WJjGJP81ppkCAJXcm-122" value="B" style="ellipse;shape=doubleEllipse;whiteSpace=wrap;html=1;aspect=fixed;" parent="1" vertex="1">
          <mxGeometry x="183.5" y="395" width="40" height="40" as="geometry" />
        </mxCell>
        <mxCell id="3M2WJjGJP81ppkCAJXcm-125" value="F1" style="strokeWidth=2;html=1;shape=mxgraph.flowchart.sequential_data;whiteSpace=wrap;fillColor=#B1DDF0;strokeColor=#10739E;" parent="1" vertex="1">
          <mxGeometry x="321" y="315.5" width="29" height="24.5" as="geometry" />
        </mxCell>
        <mxCell id="3M2WJjGJP81ppkCAJXcm-126" value="" style="endArrow=classic;html=1;exitX=1;exitY=1;exitDx=0;exitDy=0;exitPerimeter=0;entryX=0.25;entryY=0;entryDx=0;entryDy=0;strokeColor=#10739E;" parent="1" source="3M2WJjGJP81ppkCAJXcm-125" edge="1">
          <mxGeometry width="50" height="50" relative="1" as="geometry">
            <mxPoint x="440" y="360" as="sourcePoint" />
            <mxPoint x="400" y="390" as="targetPoint" />
            <Array as="points">
              <mxPoint x="360" y="340" />
            </Array>
          </mxGeometry>
        </mxCell>
        <mxCell id="3M2WJjGJP81ppkCAJXcm-130" value="B1" style="ellipse;shape=doubleEllipse;whiteSpace=wrap;html=1;aspect=fixed;fillColor=#B1DDF0;strokeColor=#10739E;" parent="1" vertex="1">
          <mxGeometry x="586" y="330" width="40" height="40" as="geometry" />
        </mxCell>
        <mxCell id="3M2WJjGJP81ppkCAJXcm-131" value="B3" style="ellipse;shape=doubleEllipse;whiteSpace=wrap;html=1;aspect=fixed;fillColor=#B1DDF0;strokeColor=#10739E;" parent="1" vertex="1">
          <mxGeometry x="586" y="460" width="40" height="40" as="geometry" />
        </mxCell>
        <mxCell id="3M2WJjGJP81ppkCAJXcm-133" value="" style="endArrow=classic;html=1;exitX=1;exitY=0.5;exitDx=0;exitDy=0;strokeColor=#10739E;entryX=0;entryY=0.5;entryDx=0;entryDy=0;" parent="1" source="3M2WJjGJP81ppkCAJXcm-112" target="3M2WJjGJP81ppkCAJXcm-131" edge="1">
          <mxGeometry width="50" height="50" relative="1" as="geometry">
            <mxPoint x="471" y="425" as="sourcePoint" />
            <mxPoint x="592.2499999999918" y="390" as="targetPoint" />
          </mxGeometry>
        </mxCell>
        <mxCell id="3M2WJjGJP81ppkCAJXcm-135" value="" style="endArrow=classic;html=1;exitX=1;exitY=0.5;exitDx=0;exitDy=0;strokeColor=#10739E;entryX=0;entryY=0.5;entryDx=0;entryDy=0;" parent="1" source="3M2WJjGJP81ppkCAJXcm-112" target="3M2WJjGJP81ppkCAJXcm-130" edge="1">
          <mxGeometry width="50" height="50" relative="1" as="geometry">
            <mxPoint x="491" y="445" as="sourcePoint" />
            <mxPoint x="612.2499999999918" y="410" as="targetPoint" />
          </mxGeometry>
        </mxCell>
        <mxCell id="3M2WJjGJP81ppkCAJXcm-136" value="" style="shape=curlyBracket;whiteSpace=wrap;html=1;rounded=1;direction=south;" parent="1" vertex="1">
          <mxGeometry x="141" y="620" width="180" height="20" as="geometry" />
        </mxCell>
        <mxCell id="3M2WJjGJP81ppkCAJXcm-137" value="" style="shape=curlyBracket;whiteSpace=wrap;html=1;rounded=1;direction=south;" parent="1" vertex="1">
          <mxGeometry x="321" y="620" width="170" height="20" as="geometry" />
        </mxCell>
        <mxCell id="3M2WJjGJP81ppkCAJXcm-138" value="" style="shape=curlyBracket;whiteSpace=wrap;html=1;rounded=1;direction=south;" parent="1" vertex="1">
          <mxGeometry x="491" y="620" width="170" height="20" as="geometry" />
        </mxCell>
        <mxCell id="3M2WJjGJP81ppkCAJXcm-140" value="B1" style="ellipse;shape=doubleEllipse;whiteSpace=wrap;html=1;aspect=fixed;" parent="1" vertex="1">
          <mxGeometry x="216" y="590" width="30" height="30" as="geometry" />
        </mxCell>
        <mxCell id="3M2WJjGJP81ppkCAJXcm-141" value="B2" style="ellipse;shape=doubleEllipse;whiteSpace=wrap;html=1;aspect=fixed;" parent="1" vertex="1">
          <mxGeometry x="389.75" y="590" width="30" height="30" as="geometry" />
        </mxCell>
        <mxCell id="3M2WJjGJP81ppkCAJXcm-142" value="B3" style="ellipse;shape=doubleEllipse;whiteSpace=wrap;html=1;aspect=fixed;" parent="1" vertex="1">
          <mxGeometry x="561" y="590" width="30" height="30" as="geometry" />
        </mxCell>
        <mxCell id="3M2WJjGJP81ppkCAJXcm-144" value="ENTRADA DE BOBINA" style="text;html=1;strokeColor=none;fillColor=none;align=center;verticalAlign=middle;whiteSpace=wrap;rounded=0;" parent="1" vertex="1">
          <mxGeometry x="162.5" y="220" width="72" height="20" as="geometry" />
        </mxCell>
        <mxCell id="3M2WJjGJP81ppkCAJXcm-145" value="APLICAÇÃO DE FITA" style="text;html=1;strokeColor=none;fillColor=none;align=center;verticalAlign=middle;whiteSpace=wrap;rounded=0;" parent="1" vertex="1">
          <mxGeometry x="349.5" y="220" width="70" height="20" as="geometry" />
        </mxCell>
        <mxCell id="3M2WJjGJP81ppkCAJXcm-146" value="SAÍDA DE BOBINA" style="text;html=1;strokeColor=none;fillColor=none;align=center;verticalAlign=middle;whiteSpace=wrap;rounded=0;" parent="1" vertex="1">
          <mxGeometry x="539.5" y="220" width="70" height="20" as="geometry" />
        </mxCell>
        <mxCell id="SRld0xJwIDHzenz1dvlB-2" value="Operador" style="shape=umlActor;verticalLabelPosition=bottom;verticalAlign=top;html=1;" parent="1" vertex="1">
          <mxGeometry x="419.5" y="340" width="16" height="30" as="geometry" />
        </mxCell>
        <mxCell id="dYq_uxf1lzoIXzODzYUG-1" value="Apontar material produzido" style="rounded=0;whiteSpace=wrap;html=1;" vertex="1" parent="1">
          <mxGeometry x="339.5" y="-1001" width="120" height="30" as="geometry" />
        </mxCell>
        <mxCell id="dYq_uxf1lzoIXzODzYUG-2" value="" style="endArrow=classic;html=1;exitX=0.5;exitY=1;exitDx=0;exitDy=0;entryX=0.5;entryY=0;entryDx=0;entryDy=0;" edge="1" parent="1" source="3M2WJjGJP81ppkCAJXcm-68" target="dYq_uxf1lzoIXzODzYUG-1">
          <mxGeometry width="50" height="50" relative="1" as="geometry">
            <mxPoint x="409.5" y="-1125" as="sourcePoint" />
            <mxPoint x="400" y="-1006" as="targetPoint" />
          </mxGeometry>
        </mxCell>
        <mxCell id="dYq_uxf1lzoIXzODzYUG-4" value="Inserir Matéria Prima" style="rounded=0;whiteSpace=wrap;html=1;" vertex="1" parent="1">
          <mxGeometry x="339.5" y="-944" width="120" height="30" as="geometry" />
        </mxCell>
        <mxCell id="dYq_uxf1lzoIXzODzYUG-5" value="" style="endArrow=classic;html=1;entryX=0.5;entryY=0;entryDx=0;entryDy=0;exitX=0.5;exitY=1;exitDx=0;exitDy=0;" edge="1" parent="1" source="dYq_uxf1lzoIXzODzYUG-1" target="dYq_uxf1lzoIXzODzYUG-4">
          <mxGeometry width="50" height="50" relative="1" as="geometry">
            <mxPoint x="400" y="-968" as="sourcePoint" />
            <mxPoint x="410" y="-1047" as="targetPoint" />
          </mxGeometry>
        </mxCell>
      </root>
    </mxGraphModel>
  </diagram>
</mxfile>
